@startuml
class App {
	+ routes
	+ db
	+ run()
	+ backupPi()
}
class Route {
	+ routeLink
	+ GET()
	+ POST()
}
abstract Form {
	+ Submit()
}
class StudyProfileForm {
	+ shotType
	+ illuminationType
	+ shotTypeSettings
	+ cameraSettings
	+ saveToPi()
}
class SearchForm {
	+ searchCategory
	+ searchQuery
}
App o-left- Route
App o-right- Form
Form <|-right- StudyProfileForm
Form <|-right- SearchForm
@enduml
